<mxfile host="app.diagrams.net" agent="Mozilla/5.0 (X11; Linux x86_64; rv:144.0) Gecko/20100101 Firefox/144.0" version="28.2.8">
  <diagram name="Page-1" id="KrV62NsMxbxOYL2rbyKl">
    <mxGraphModel dx="345" dy="437" grid="1" gridSize="10" guides="1" tooltips="1" connect="1" arrows="1" fold="1" page="1" pageScale="1" pageWidth="827" pageHeight="1169" math="0" shadow="0">
      <root>
        <mxCell id="0" />
        <mxCell id="1" parent="0" />
        <mxCell id="RTrYkmxH6ciXYYABdN9L-1" value="" style="pointerEvents=1;verticalLabelPosition=bottom;shadow=0;dashed=0;align=center;html=1;verticalAlign=top;shape=mxgraph.electrical.inductors.inductor_5;" vertex="1" parent="1">
          <mxGeometry x="155" y="133" width="170" height="47" as="geometry" />
        </mxCell>
        <mxCell id="RTrYkmxH6ciXYYABdN9L-2" value="" style="verticalLabelPosition=bottom;shadow=0;dashed=0;align=center;fillColor=strokeColor;html=1;verticalAlign=top;strokeWidth=1;shape=mxgraph.electrical.miscellaneous.monocell_battery;rotation=-180;" vertex="1" parent="1">
          <mxGeometry x="190" y="240" width="100" height="60" as="geometry" />
        </mxCell>
        <mxCell id="RTrYkmxH6ciXYYABdN9L-21" value="" style="group" vertex="1" connectable="0" parent="1">
          <mxGeometry x="170.67576538582523" y="95" width="145.3484692283496" height="53" as="geometry" />
        </mxCell>
        <mxCell id="RTrYkmxH6ciXYYABdN9L-7" value="" style="curved=1;endArrow=none;html=1;rounded=0;strokeColor=default;align=center;verticalAlign=middle;fontFamily=Helvetica;fontSize=11;fontColor=default;labelBackgroundColor=default;edgeStyle=orthogonalEdgeStyle;endFill=0;" edge="1" parent="RTrYkmxH6ciXYYABdN9L-21">
          <mxGeometry width="50" height="50" relative="1" as="geometry">
            <mxPoint x="32.674234614174765" y="53" as="sourcePoint" />
            <mxPoint x="112.6742346141748" y="53" as="targetPoint" />
            <Array as="points">
              <mxPoint x="2.6742346141747646" y="53" />
              <mxPoint x="2.6742346141747646" y="3" />
              <mxPoint x="142.6742346141748" y="3" />
              <mxPoint x="142.6742346141748" y="53" />
            </Array>
          </mxGeometry>
        </mxCell>
        <mxCell id="RTrYkmxH6ciXYYABdN9L-13" value="" style="html=1;shadow=0;dashed=0;align=center;verticalAlign=middle;shape=mxgraph.arrows2.arrow;dy=0.99;dx=10;notch=0;fontFamily=Helvetica;fontSize=11;fontColor=default;labelBackgroundColor=default;gradientColor=none;fillColor=light-dark(#FFFFFF,#FFFFFF);" vertex="1" parent="RTrYkmxH6ciXYYABdN9L-21">
          <mxGeometry x="69.67423461417476" width="6" height="6" as="geometry" />
        </mxCell>
        <mxCell id="RTrYkmxH6ciXYYABdN9L-14" value="" style="html=1;shadow=0;dashed=0;align=center;verticalAlign=middle;shape=mxgraph.arrows2.arrow;dy=0.99;dx=10;notch=0;fontFamily=Helvetica;fontSize=11;fontColor=default;labelBackgroundColor=default;gradientColor=none;fillColor=light-dark(#FFFFFF,#FFFFFF);rotation=-105;" vertex="1" parent="RTrYkmxH6ciXYYABdN9L-21">
          <mxGeometry x="0.6742346141747646" y="32" width="6" height="6" as="geometry" />
        </mxCell>
        <mxCell id="RTrYkmxH6ciXYYABdN9L-15" value="" style="html=1;shadow=0;dashed=0;align=center;verticalAlign=middle;shape=mxgraph.arrows2.arrow;dy=0.99;dx=10;notch=0;fontFamily=Helvetica;fontSize=11;fontColor=default;labelBackgroundColor=default;gradientColor=none;fillColor=light-dark(#FFFFFF,#FFFFFF);rotation=75;" vertex="1" parent="RTrYkmxH6ciXYYABdN9L-21">
          <mxGeometry x="138.6742346141748" y="20" width="6" height="6" as="geometry" />
        </mxCell>
        <mxCell id="RTrYkmxH6ciXYYABdN9L-22" value="N" style="text;html=1;whiteSpace=wrap;strokeColor=none;fillColor=none;align=center;verticalAlign=middle;rounded=0;fontFamily=Helvetica;fontSize=11;fontColor=default;labelBackgroundColor=default;" vertex="1" parent="1">
          <mxGeometry x="162" y="141" width="26" height="19" as="geometry" />
        </mxCell>
        <mxCell id="RTrYkmxH6ciXYYABdN9L-23" value="S" style="text;html=1;whiteSpace=wrap;strokeColor=none;fillColor=none;align=center;verticalAlign=middle;rounded=0;fontFamily=Helvetica;fontSize=11;fontColor=default;labelBackgroundColor=default;" vertex="1" parent="1">
          <mxGeometry x="298" y="141" width="26" height="19" as="geometry" />
        </mxCell>
        <mxCell id="RTrYkmxH6ciXYYABdN9L-16" value="" style="curved=1;endArrow=none;html=1;rounded=0;strokeColor=default;align=center;verticalAlign=middle;fontFamily=Helvetica;fontSize=11;fontColor=default;labelBackgroundColor=default;edgeStyle=orthogonalEdgeStyle;endFill=0;" edge="1" parent="1">
          <mxGeometry width="50" height="50" relative="1" as="geometry">
            <mxPoint x="203.3542346141748" y="164" as="sourcePoint" />
            <mxPoint x="283.3542346141748" y="164" as="targetPoint" />
            <Array as="points">
              <mxPoint x="173.3542346141748" y="164" />
              <mxPoint x="173.3542346141748" y="214" />
              <mxPoint x="313.3542346141748" y="214" />
              <mxPoint x="313.3542346141748" y="164" />
            </Array>
          </mxGeometry>
        </mxCell>
        <mxCell id="RTrYkmxH6ciXYYABdN9L-17" value="" style="html=1;shadow=0;dashed=0;align=center;verticalAlign=middle;shape=mxgraph.arrows2.arrow;dy=0.99;dx=10;notch=0;fontFamily=Helvetica;fontSize=11;fontColor=default;labelBackgroundColor=default;gradientColor=none;fillColor=light-dark(#FFFFFF,#FFFFFF);" vertex="1" parent="1">
          <mxGeometry x="240.3542346141748" y="211" width="6" height="6" as="geometry" />
        </mxCell>
        <mxCell id="RTrYkmxH6ciXYYABdN9L-18" value="" style="html=1;shadow=0;dashed=0;align=center;verticalAlign=middle;shape=mxgraph.arrows2.arrow;dy=0.99;dx=10;notch=0;fontFamily=Helvetica;fontSize=11;fontColor=default;labelBackgroundColor=default;gradientColor=none;fillColor=light-dark(#FFFFFF,#FFFFFF);rotation=100;" vertex="1" parent="1">
          <mxGeometry x="171.0042346141748" y="180" width="6" height="6" as="geometry" />
        </mxCell>
        <mxCell id="RTrYkmxH6ciXYYABdN9L-19" value="" style="html=1;shadow=0;dashed=0;align=center;verticalAlign=middle;shape=mxgraph.arrows2.arrow;dy=0.99;dx=10;notch=0;fontFamily=Helvetica;fontSize=11;fontColor=default;labelBackgroundColor=default;gradientColor=none;fillColor=light-dark(#FFFFFF,#FFFFFF);rotation=-60;" vertex="1" parent="1">
          <mxGeometry x="308.0042346141748" y="194" width="6" height="6" as="geometry" />
        </mxCell>
        <mxCell id="RTrYkmxH6ciXYYABdN9L-24" style="edgeStyle=orthogonalEdgeStyle;shape=connector;rounded=0;orthogonalLoop=1;jettySize=auto;html=1;exitX=1;exitY=0.645;exitDx=0;exitDy=0;exitPerimeter=0;entryX=0;entryY=0.5;entryDx=0;entryDy=0;entryPerimeter=0;strokeColor=default;align=center;verticalAlign=middle;fontFamily=Helvetica;fontSize=11;fontColor=default;labelBackgroundColor=default;endArrow=none;endFill=0;" edge="1" parent="1" source="RTrYkmxH6ciXYYABdN9L-1" target="RTrYkmxH6ciXYYABdN9L-2">
          <mxGeometry relative="1" as="geometry" />
        </mxCell>
        <mxCell id="RTrYkmxH6ciXYYABdN9L-25" style="edgeStyle=orthogonalEdgeStyle;shape=connector;rounded=0;orthogonalLoop=1;jettySize=auto;html=1;exitX=0;exitY=0.645;exitDx=0;exitDy=0;exitPerimeter=0;entryX=1;entryY=0.5;entryDx=0;entryDy=0;entryPerimeter=0;strokeColor=default;align=center;verticalAlign=middle;fontFamily=Helvetica;fontSize=11;fontColor=default;labelBackgroundColor=default;endArrow=none;endFill=0;" edge="1" parent="1" source="RTrYkmxH6ciXYYABdN9L-1" target="RTrYkmxH6ciXYYABdN9L-2">
          <mxGeometry relative="1" as="geometry" />
        </mxCell>
        <mxCell id="RTrYkmxH6ciXYYABdN9L-26" value="" style="curved=1;endArrow=classic;html=1;rounded=0;strokeColor=default;align=center;verticalAlign=middle;fontFamily=Helvetica;fontSize=11;fontColor=default;labelBackgroundColor=default;edgeStyle=orthogonalEdgeStyle;" edge="1" parent="1">
          <mxGeometry width="50" height="50" relative="1" as="geometry">
            <mxPoint x="164" y="263" as="sourcePoint" />
            <mxPoint x="144.00800000000004" y="243" as="targetPoint" />
            <Array as="points">
              <mxPoint x="144" y="263" />
            </Array>
          </mxGeometry>
        </mxCell>
        <mxCell id="RTrYkmxH6ciXYYABdN9L-27" value="I" style="text;html=1;whiteSpace=wrap;strokeColor=none;fillColor=none;align=center;verticalAlign=middle;rounded=0;fontFamily=Helvetica;fontSize=11;fontColor=default;labelBackgroundColor=default;" vertex="1" parent="1">
          <mxGeometry x="152" y="240" width="10" height="20" as="geometry" />
        </mxCell>
      </root>
    </mxGraphModel>
  </diagram>
</mxfile>
